# xmcd
# Track frame offsets:
# 150
# 23491
# 64490
# 88940
# 113828
# 161618
# 195731
#
# Disc length: 2924 seconds
# Revision: 0
# Processed by: cddbd v1.5.1PL0 Copyright (c) Steve Scherf et al.
# Submitted via: VisiTrax 2.9.10.220 - For more info visit www.synapsa.com
#
DISCID=590b6a07
DTITLE=Hayes, Isaac - Black Moses
DYEAR=1900
DGENRE=Soul
TTITLE0=Never Can Say Goodbye
TTITLE1=(They Long To Be) Close To You
TTITLE2=For The Good Times
TTITLE3=Nothing Takes the Place Of you
TTITLE4=Never Gonna Give You Up
TTITLE5=Help Me Love
TTITLE6=Need To Belong To Someone
EXTD=Rimasterizzato - Include traccia multimediale: video, biografia e foto
EXTT0=
EXTT1=
EXTT2=
EXTT3=
EXTT4=
EXTT5=
EXTT6=
PLAYORDER=
